<?xml version="1.0" standalone="no"?>
<!DOCTYPE svg PUBLIC "-//W3C//DTD SVG 20010904//EN"
 "http://www.w3.org/TR/2001/REC-SVG-20010904/DTD/svg10.dtd">
<svg version="1.0" xmlns="http://www.w3.org/2000/svg"
 width="159.000000pt" height="159.000000pt" viewBox="0 0 159.000000 159.000000"
 preserveAspectRatio="xMidYMid meet">
<metadata>
Created by potrace 1.11, written by Peter Selinger 2001-2013
</metadata>
<g transform="translate(0.000000,159.000000) scale(0.100000,-0.100000)"
fill="#000000" stroke="none">
<path d="M460 1351 c-211 -58 -290 -186 -290 -476 0 -191 31 -299 105 -363 59
-53 134 -42 161 24 17 40 10 79 -19 112 -26 28 -39 28 -53 -2 -8 -18 -8 -28 3
-42 17 -23 16 -31 -3 -38 -48 -18 -94 66 -94 173 0 67 2 75 29 102 65 64 129
20 172 -119 33 -108 35 -309 2 -394 -11 -31 -18 -59 -15 -62 12 -12 181 -6
189 6 4 7 13 38 19 68 l11 55 20 -65 c19 -64 20 -65 56 -68 47 -4 54 11 37 86
-18 83 -53 162 -130 292 -153 260 -179 342 -147 464 11 43 16 49 40 50 21 1
26 -2 21 -14 -4 -8 -9 -55 -11 -105 -4 -82 -3 -93 19 -125 39 -58 78 -72 188
-66 63 4 107 2 130 -7 46 -16 80 -68 80 -122 0 -47 -21 -72 -80 -99 -35 -16
-35 -16 45 -12 78 3 81 3 126 -30 26 -19 59 -51 75 -71 15 -21 30 -40 33 -43
13 -12 53 -94 70 -142 l18 -53 89 0 89 0 3 135 c8 362 -98 632 -285 725 -52
26 -68 29 -153 30 -77 0 -104 -5 -144 -23 -27 -12 -49 -22 -50 -22 0 0 1 22 2
48 7 103 -39 178 -125 201 -56 16 -159 12 -233 -8z m-132 -170 c-15 -5 -19 4
-11 24 6 18 7 18 13 -1 4 -10 3 -21 -2 -23z m912 -552 c22 -53 -14 -83 -44
-36 -19 30 -32 92 -17 83 6 -4 11 -2 11 5 0 19 36 -18 50 -52z"/>
<path d="M737 764 c-10 -10 -9 -42 2 -48 18 -11 42 6 39 28 -3 21 -28 33 -41
20z"/>
<path d="M925 387 c-4 -13 -5 -46 -3 -73 l3 -49 54 -3 c80 -5 86 0 62 46 -46
91 -104 129 -116 79z"/>
</g>
</svg>
