<?xml version="1.0" standalone="no"?>
<!DOCTYPE svg PUBLIC "-//W3C//DTD SVG 20010904//EN"
 "http://www.w3.org/TR/2001/REC-SVG-20010904/DTD/svg10.dtd">
<svg version="1.0" xmlns="http://www.w3.org/2000/svg"
 width="700.000000pt" height="700.000000pt" viewBox="0 0 700.000000 700.000000"
 preserveAspectRatio="xMidYMid meet">
<metadata>
Created by potrace 1.14, written by Peter Selinger 2001-2017
</metadata>
<g transform="translate(0.000000,700.000000) scale(0.100000,-0.100000)"
fill="#000000" stroke="none">
<path d="M2175 6090 c-649 -103 -1187 -480 -1462 -1025 -144 -285 -204 -531
-224 -912 -11 -222 -1 -522 26 -744 89 -733 381 -1257 773 -1384 76 -25 210
-18 275 14 96 47 172 151 198 271 6 29 9 104 7 168 -3 110 -5 121 -37 180 -40
73 -137 168 -204 200 -26 12 -51 22 -56 22 -5 0 -12 -34 -16 -75 -6 -72 -8
-76 -38 -91 -18 -9 -33 -17 -35 -19 -1 -1 17 -21 39 -45 45 -47 78 -111 79
-148 0 -37 -28 -86 -59 -105 -39 -23 -125 -22 -176 2 -203 94 -348 413 -347
766 1 316 133 566 342 646 77 30 185 23 264 -15 137 -67 266 -234 356 -460 68
-172 113 -359 155 -644 14 -92 32 -210 41 -262 20 -126 21 -428 1 -575 -33
-239 -108 -501 -201 -700 l-45 -95 443 0 442 0 21 43 c52 107 83 282 83 463 0
159 9 169 63 67 58 -111 177 -482 177 -552 0 -21 4 -21 206 -21 l206 0 -7 63
c-34 321 -126 627 -295 974 -104 213 -153 300 -341 595 -382 599 -510 829
-633 1142 -158 399 -188 769 -90 1096 25 81 88 230 97 230 3 0 27 -18 53 -40
27 -22 55 -40 64 -40 8 0 44 14 79 30 35 17 66 29 68 26 5 -4 -16 -90 -72
-301 -44 -165 -54 -308 -36 -481 33 -313 128 -490 313 -577 141 -67 281 -78
653 -52 376 26 537 12 690 -60 118 -56 209 -153 283 -301 70 -138 85 -286 43
-396 -56 -146 -204 -272 -410 -351 -78 -29 -81 -32 -55 -40 74 -21 209 -20
349 3 237 38 342 23 503 -71 80 -48 327 -298 448 -454 138 -178 179 -203 245
-148 92 77 138 322 83 438 -13 29 -29 43 -69 60 -126 56 -187 183 -210 438 -8
84 -4 90 45 62 47 -27 53 -21 45 45 -6 52 -5 60 10 60 62 0 160 -95 210 -203
61 -132 71 -271 27 -370 l-21 -47 20 -103 c14 -71 19 -129 17 -192 -5 -121
-30 -174 -104 -221 -52 -33 -54 -36 -54 -78 0 -99 89 -363 211 -625 l52 -111
407 0 407 0 7 46 c10 73 7 800 -4 989 -77 1328 -416 2213 -1025 2677 -329 250
-763 365 -1203 318 -282 -30 -583 -127 -734 -236 -48 -34 -50 -34 -45 -12 30
119 50 446 36 563 -43 341 -307 583 -737 676 -144 31 -453 36 -617 9z m-896
-716 c30 -38 29 -119 -2 -165 -60 -89 -150 -12 -125 106 18 81 85 112 127 59z
m3266 -1202 c2 -2 56 34 122 81 65 46 124 87 131 91 11 7 12 -23 6 -164 l-7
-171 24 5 c54 13 164 34 166 33 3 -4 -226 -252 -236 -255 -26 -9 -208 91 -327
179 l-52 38 46 182 45 182 39 -99 c22 -55 41 -100 43 -102z"/>
<path d="M3215 3330 c-35 -14 -66 -57 -72 -97 -13 -104 121 -168 196 -92 87
86 -11 236 -124 189z"/>
<path d="M4063 1638 c-45 -22 -67 -91 -71 -222 -4 -103 9 -265 25 -333 l5 -23
294 0 c217 0 294 3 294 12 0 17 -75 151 -136 243 -107 161 -227 282 -317 320
-42 17 -63 18 -94 3z"/>
</g>
</svg>
